<?xml version="1.0" encoding="UTF-8"?>
<!DOCTYPE svg PUBLIC "-//W3C//DTD SVG 1.1//EN" "http://www.w3.org/Graphics/SVG/1.1/DTD/svg11.dtd">
<svg xmlns="http://www.w3.org/2000/svg" version="1.1" width="512px" height="512px" style="shape-rendering:geometricPrecision; text-rendering:geometricPrecision; image-rendering:optimizeQuality; fill-rule:evenodd; clip-rule:evenodd" xmlns:xlink="http://www.w3.org/1999/xlink">
<g><path style="opacity:1" fill="#b888d2" d="M -0.5,-0.5 C 170.167,-0.5 340.833,-0.5 511.5,-0.5C 511.5,170.167 511.5,340.833 511.5,511.5C 340.833,511.5 170.167,511.5 -0.5,511.5C -0.5,340.833 -0.5,170.167 -0.5,-0.5 Z"/></g>
<g><path style="opacity:1" fill="#000000" d="M 327.5,495.5 C 327.5,471.833 327.5,448.167 327.5,424.5C 315.5,424.5 303.5,424.5 291.5,424.5C 291.5,448.167 291.5,471.833 291.5,495.5C 279.833,495.5 268.167,495.5 256.5,495.5C 256.5,434.5 256.5,373.5 256.5,312.5C 268.167,312.5 279.833,312.5 291.5,312.5C 291.5,336.167 291.5,359.833 291.5,383.5C 303.5,383.5 315.5,383.5 327.5,383.5C 327.5,359.833 327.5,336.167 327.5,312.5C 339.167,312.5 350.833,312.5 362.5,312.5C 362.5,336.167 362.5,359.833 362.5,383.5C 356.5,383.5 350.5,383.5 344.5,383.5C 344.5,395.167 344.5,406.833 344.5,418.5C 350.5,418.5 356.5,418.5 362.5,418.5C 362.5,444.167 362.5,469.833 362.5,495.5C 350.833,495.5 339.167,495.5 327.5,495.5 Z"/></g>
<g><path style="opacity:1" fill="#000000" d="M 380.5,460.5 C 404.167,460.5 427.833,460.5 451.5,460.5C 451.828,448.322 451.495,436.322 450.5,424.5C 427.167,424.5 403.833,424.5 380.5,424.5C 380.5,387.167 380.5,349.833 380.5,312.5C 417.833,312.5 455.167,312.5 492.5,312.5C 492.5,324.167 492.5,335.833 492.5,347.5C 466.833,347.5 441.167,347.5 415.5,347.5C 415.5,359.5 415.5,371.5 415.5,383.5C 441.167,383.5 466.833,383.5 492.5,383.5C 492.5,420.833 492.5,458.167 492.5,495.5C 455.167,495.5 417.833,495.5 380.5,495.5C 380.5,483.833 380.5,472.167 380.5,460.5 Z"/></g>
<g><path style="opacity:1" fill="#87649b" d="M 327.5,495.5 C 326.502,472.339 326.169,449.006 326.5,425.5C 315.167,425.5 303.833,425.5 292.5,425.5C 292.831,449.006 292.498,472.339 291.5,495.5C 291.5,471.833 291.5,448.167 291.5,424.5C 303.5,424.5 315.5,424.5 327.5,424.5C 327.5,448.167 327.5,471.833 327.5,495.5 Z"/></g>
<g><path style="opacity:1" fill="#705280" d="M 450.5,424.5 C 451.495,436.322 451.828,448.322 451.5,460.5C 427.833,460.5 404.167,460.5 380.5,460.5C 403.661,459.502 426.994,459.169 450.5,459.5C 450.5,447.833 450.5,436.167 450.5,424.5 Z"/></g>
</svg>
